<svg xmlns="http://www.w3.org/2000/svg" fill="none" viewBox="94 81 457 203.5">
  <path fill="#FFE600" fill-rule="evenodd" d="M184.409 82.8563c17.427 1.242 35.187 2.2581 49.708 11.946 14.885 9.9307 24.293 25.5287 31.174 42.0167 7.411 17.761 13.922 36.764 9.518 55.493-4.609 19.597-17.222 36.914-33.912 48.238-16.384 11.115-36.735 14.673-56.488 13.094-18.648-1.49-35.47-10.218-50.27-21.629-14.418-11.116-25.922-25.227-32.491-42.178-6.8665-17.72-10.2406-36.997-5.2996-55.344 5.1066-18.96 15.9346-37.2122 32.9066-47.164 16.299-9.5572 36.294-5.8168 55.154-4.4727Z" clip-rule="evenodd" opacity=".25"/>
  <path fill="#FFE600" fill-rule="evenodd" d="M181.381 105.535c13.911-1.221 27.793 3.858 39.011 12.158 11.146 8.247 20.476 19.898 22.769 33.555 2.157 12.845-6.987 24.108-11.005 36.499-4.025 12.412-2.228 28.042-12.529 36.073-10.342 8.064-25.133 4.054-38.246 3.514-12.501-.514-25.172-.349-36.021-6.57-11.687-6.701-23.388-16.126-26.42-29.233-2.967-12.826 6.055-24.738 11.125-36.89 4.593-11.011 8.366-22.255 16.992-30.51 9.633-9.218 21.031-17.429 34.324-18.596Z" clip-rule="evenodd" opacity=".35"/>
  <path fill="#FFE600" fill-rule="evenodd" d="M187.5 203.5c-8.463.07-17 0-24-3-1.689-1.615-3.13-1.906-4.5-3.837-2.32-3.269-4.152-6.938-5.391-10.836-4.343-13.67.238-28.752 12.138-36.983 11.365-7.861 26.427-5.549 37.59 2.588 10.836 7.899 16.26 21.147 12.446 33.883-4.168 13.915-13.556 18.063-28.283 18.185Z" clip-rule="evenodd" opacity=".5"/>
  <ellipse cx="184" cy="269" fill="#FFE600" opacity=".35" rx="25" ry="8"/>
  <ellipse cx="184.5" cy="269" fill="#FFE600" opacity=".35" rx="17.5" ry="4"/>
  <circle cx="173.567" cy="211.567" r="3.56701" fill="#FFE600"/>
  <path fill="#fff" fill-rule="evenodd" d="M184 182.5c2.029 0 4.01.086 5.919.25 5.034.432 9.569 1.407 13.163 2.777 1.237.472 2.382.997 3.406 1.576 1.025.578 1.929 1.208 2.686 1.89 1.512 1.364 2.557 3.053 2.557 5.007v6c0 1.245-.424 2.383-1.123 3.397-.059.084-.119.168-.181.251-.185.248-.388.489-.604.721v.809c0 1.28.535 2.532 1.444 3.883.612.909 1.291 1.731 2.007 2.596.395.477.8.967 1.211 1.493 1.262 1.612 2.015 3.645 2.015 5.85v50c0 4.821-4.256 8.69-9.962 11.267-5.845 2.639-13.815 4.233-22.538 4.233s-16.693-1.594-22.538-4.233c-5.706-2.577-9.962-6.446-9.962-11.267v-50c0-2.205.753-4.238 2.015-5.85.411-.526.816-1.016 1.211-1.493.716-.865 1.395-1.687 2.007-2.596.909-1.351 1.444-2.603 1.444-3.883v-.809c-1.153-1.239-1.908-2.709-1.908-4.369v-6c0-1.954 1.045-3.643 2.557-5.007 1.513-1.363 3.618-2.523 6.092-3.466 1.104-.421 2.298-.805 3.567-1.147 2.292-.617 4.831-1.099 7.542-1.42 2.528-.3 5.206-.46 7.973-.46Zm0 3c-7.044 0-13.353 1.101-17.846 2.829-2.252.866-3.971 1.86-5.102 2.888-1.13 1.028-1.552 1.97-1.552 2.783s.422 1.755 1.552 2.783c1.131 1.028 2.85 2.022 5.102 2.888 4.493 1.728 10.802 2.829 17.846 2.829 7.044 0 13.353-1.101 17.846-2.829 2.252-.866 3.971-1.86 5.102-2.888 1.13-1.028 1.552-1.97 1.552-2.783s-.422-1.755-1.552-2.783c-1.131-1.028-2.85-2.022-5.102-2.888-4.493-1.728-10.802-2.829-17.846-2.829ZM159.269 200v-.79c1.481 1.275 3.48 2.366 5.808 3.261 4.916 1.891 11.607 3.029 18.923 3.029 7.316 0 14.007-1.138 18.923-3.029 2.328-.895 4.327-1.986 5.808-3.261v.79c0 .114-.009.232-.027.351-.051.344-.18.71-.406 1.094-.228.387-.555.792-1.003 1.214l-.023.021c-.035.033-.071.066-.107.098-1.141 1.029-2.878 2.025-5.151 2.891-4.537 1.73-10.905 2.831-18.014 2.831s-13.477-1.101-18.014-2.831c-2.273-.866-4.009-1.862-5.151-2.891-.049-.044-.096-.088-.143-.131-.319-.302-.576-.595-.78-.88-.457-.639-.643-1.232-.643-1.767Zm43.813 8.473c1.43-.545 2.737-1.163 3.877-1.85.291 1.54 1.009 2.909 1.819 4.113.688 1.023 1.543 2.059 2.319 3 .369.446.719.871 1.026 1.262.863 1.104 1.377 2.491 1.377 4.002v50c0 2.911-2.684 6.042-8.197 8.532-5.375 2.428-12.905 3.968-21.303 3.968-8.398 0-15.928-1.54-21.303-3.968-5.513-2.49-8.197-5.621-8.197-8.532v-50c0-1.511.514-2.898 1.377-4.002.307-.391.657-.816 1.026-1.262.776-.941 1.631-1.977 2.319-3 .81-1.204 1.528-2.573 1.819-4.113 1.14.687 2.447 1.305 3.877 1.85 4.957 1.89 11.704 3.027 19.082 3.027s14.125-1.137 19.082-3.027Z" clip-rule="evenodd"/>
  <path fill="#FFE500" fill-rule="evenodd" d="M162.26 101.68c-1.863-.605-3.335-2.077-3.94-3.9402C157.967 96.6567 157.506 96 157 96c-.506 0-.967.6567-1.32 1.7398-.605 1.8632-2.077 3.3352-3.94 3.9402-1.083.353-1.74.814-1.74 1.32 0 .506.657.967 1.74 1.32 1.863.605 3.335 2.077 3.94 3.94.353 1.083.814 1.74 1.32 1.74.506 0 .967-.657 1.32-1.74.605-1.863 2.077-3.335 3.94-3.94 1.083-.353 1.74-.814 1.74-1.32 0-.506-.657-.967-1.74-1.32Zm51.235-1.062c0 .985-.799 1.784-1.784 1.784s-1.783-.799-1.783-1.784c0-.9845.798-1.783 1.783-1.783.985 0 1.784.7985 1.784 1.783Zm-74.907 8.918c0 1.97-1.597 3.567-3.567 3.567-1.97 0-3.567-1.597-3.567-3.567 0-1.97 1.597-3.567 3.567-3.567 1.97 0 3.567 1.597 3.567 3.567ZM191 221.5c0 1.381-1.119 2.5-2.5 2.5s-2.5-1.119-2.5-2.5 1.119-2.5 2.5-2.5 2.5 1.119 2.5 2.5Zm-52.413-83.428c.985 0 1.784-.799 1.784-1.784s-.799-1.783-1.784-1.783-1.783.798-1.783 1.783c0 .985.798 1.784 1.783 1.784Zm42.98 54.712c0 .985-.798 1.783-1.783 1.783-.985 0-1.784-.798-1.784-1.783 0-.985.799-1.784 1.784-1.784s1.783.799 1.783 1.784Zm-8.783-13.217c.985 0 1.783-.798 1.783-1.783 0-.985-.798-1.784-1.783-1.784-.985 0-1.784.799-1.784 1.784s.799 1.783 1.784 1.783Zm-6.217-9.783c0 .985-.798 1.783-1.783 1.783-.985 0-1.784-.798-1.784-1.783 0-.985.799-1.784 1.784-1.784s1.783.799 1.783 1.784ZM164 153c1.657 0 3-1.343 3-3s-1.343-3-3-3-3 1.343-3 3 1.343 3 3 3Zm15-11c0 1.657-1.343 3-3 3s-3-1.343-3-3 1.343-3 3-3 3 1.343 3 3Zm17-12c1.657 0 3-1.343 3-3s-1.343-3-3-3-3 1.343-3 3 1.343 3 3 3Zm-3 24c0 2.209-1.791 4-4 4s-4-1.791-4-4 1.791-4 4-4 4 1.791 4 4Zm-61.546-19.495c.985 0 1.783-.798 1.783-1.783 0-.985-.798-1.784-1.783-1.784-.985 0-1.784.799-1.784 1.784s.799 1.783 1.784 1.783Zm58.113 103.279c0 .985-.798 1.783-1.783 1.783-.985 0-1.784-.798-1.784-1.783 0-.985.799-1.784 1.784-1.784s1.783.799 1.783 1.784Zm45.815-100.578c1.97 0 3.567-1.597 3.567-3.567 0-1.97-1.597-3.567-3.567-3.567-1.97 0-3.567 1.597-3.567 3.567 0 1.97 1.597 3.567 3.567 3.567Zm-6.866 36.531c.281.817.93 1.466 1.747 1.747 1.063.367 1.737.91 1.737 1.516s-.674 1.149-1.737 1.516c-.817.281-1.466.93-1.747 1.747-.367 1.063-.91 1.737-1.516 1.737s-1.149-.674-1.516-1.737c-.281-.817-.93-1.466-1.747-1.747-1.063-.367-1.737-.91-1.737-1.516s.674-1.149 1.737-1.516c.817-.281 1.466-.93 1.747-1.747.367-1.063.91-1.737 1.516-1.737s1.149.674 1.516 1.737Zm-80.253-23.253c-.817-.281-1.466-.93-1.747-1.747-.367-1.063-.91-1.737-1.516-1.737s-1.149.674-1.516 1.737c-.281.817-.93 1.466-1.747 1.747-1.063.367-1.737.91-1.737 1.516s.674 1.149 1.737 1.516c.817.281 1.466.93 1.747 1.747.367 1.063.91 1.737 1.516 1.737s1.149-.674 1.516-1.737c.281-.817.93-1.466 1.747-1.747 1.063-.367 1.737-.91 1.737-1.516s-.674-1.149-1.737-1.516Z" clip-rule="evenodd"/>
  <path fill="#fff" d="M280.375 156.099c1.141 0 2.073-.171 2.796-.514.761-.342 1.427-.685 1.998-1.027.571-.343 1.103-.514 1.598-.514.609 0 1.084.171 1.427.514.342.304.628.913.856 1.826l4.566 17.179c.152.533.095.989-.172 1.37-.228.342-.589.551-1.084.627-.419.077-.818.038-1.199-.114-.38-.19-.703-.57-.97-1.141-1.94-4.071-3.728-7.172-5.365-9.303-1.636-2.169-3.329-3.653-5.079-4.452-1.75-.799-3.767-1.198-6.05-1.198h-15.58v70.427c0 .685.228 1.237.685 1.655.494.419 1.198.704 2.111.856l6.335.685c.609.076 1.028.247 1.256.514.266.266.399.627.399 1.084 0 .419-.152.761-.456 1.027-.305.267-.799.4-1.484.4h-28.08c-.646 0-1.122-.133-1.426-.4-.305-.266-.457-.608-.457-1.027 0-.799.514-1.332 1.541-1.598l4.337-.685c.837-.19 1.465-.475 1.884-.856.418-.418.628-.97.628-1.655V162.32c0-.685-.21-1.218-.628-1.598-.419-.419-1.047-.723-1.884-.913l-4.337-.685c-1.027-.267-1.541-.799-1.541-1.598 0-.457.152-.799.457-1.028.304-.266.78-.399 1.426-.399h41.492Zm-27.109 39.665h18.719c2.588 0 4.452-.533 5.593-1.598 1.142-1.065 1.846-3.082 2.112-6.05.114-.532.285-.913.514-1.141.266-.266.589-.419.97-.457.913-.076 1.503.419 1.769 1.484l4.338 17.122c.152.532.133.97-.057 1.312-.153.343-.438.571-.857.685-.418.114-.818.095-1.198-.057-.343-.152-.685-.456-1.027-.913-1.104-1.902-2.131-3.367-3.082-4.394-.913-1.028-1.941-1.732-3.082-2.112-1.104-.419-2.492-.628-4.166-.628h-20.546v-3.253Zm62.326-10.615v44.801c0 .837.152 1.465.456 1.884.343.418.838.703 1.484.856l2.968.57c.533.115.913.305 1.142.571.228.228.342.514.342.856 0 .381-.152.704-.457.97-.266.229-.723.343-1.369.343h-20.603c-.571 0-1.009-.114-1.313-.343-.266-.266-.4-.589-.4-.97 0-.342.115-.628.343-.856.228-.228.571-.399 1.027-.514l3.139-.627c.647-.153 1.123-.438 1.427-.856.342-.419.514-1.028.514-1.827v-37.953c0-.608-.115-1.046-.343-1.312-.19-.305-.552-.476-1.084-.514l-4.052-.114c-.457-.076-.799-.209-1.028-.4-.19-.19-.285-.437-.285-.742 0-.38.114-.665.342-.856.229-.228.628-.456 1.199-.685l11.072-3.481c.875-.342 1.56-.571 2.055-.685.532-.114.989-.171 1.369-.171.685 0 1.199.19 1.541.571.343.38.514.875.514 1.484Zm-6.563-12.157c-2.245 0-4.072-.666-5.479-1.997-1.37-1.332-2.055-3.006-2.055-5.023 0-2.054.704-3.728 2.112-5.022 1.408-1.332 3.215-1.998 5.422-1.998 2.282 0 4.128.666 5.536 1.998 1.407 1.332 2.111 3.006 2.111 5.022 0 2.017-.704 3.691-2.111 5.023-1.408 1.331-3.254 1.997-5.536 1.997Zm37.136 34.129c0-5.326.761-9.797 2.283-13.412 1.522-3.614 3.5-6.354 5.935-8.218 2.436-1.864 5.004-2.797 7.705-2.797 3.158 0 5.612.914 7.363 2.74 1.75 1.788 2.625 4.261 2.625 7.419 0 2.435-.552 4.281-1.655 5.536-1.066 1.256-2.435 1.884-4.109 1.884-1.637 0-2.911-.457-3.824-1.37-.913-.951-1.37-2.283-1.37-3.995l-.057-1.826c0-1.332-.285-2.302-.856-2.911-.571-.647-1.541-.97-2.911-.97-1.56 0-3.082.666-4.566 1.997-1.484 1.332-2.72 3.329-3.709 5.993-.952 2.663-1.427 5.992-1.427 9.987l-1.427-.057Zm1.084-21.858.343 15.695v28.935c0 .723.19 1.313.571 1.769.38.419.989.685 1.826.799l5.308.742c.57.076.989.248 1.255.514.305.228.457.552.457.97 0 .381-.171.704-.514.97-.304.229-.761.343-1.37.343h-23.513c-.609 0-1.066-.114-1.37-.343-.266-.266-.4-.589-.4-.97 0-.342.115-.628.343-.856.266-.228.647-.418 1.141-.571l3.025-.57c.647-.153 1.123-.438 1.427-.856.342-.419.514-1.009.514-1.77v-38.01c0-.608-.115-1.065-.343-1.369-.19-.305-.552-.476-1.084-.514l-4.109-.114c-.457-.038-.78-.152-.971-.343-.19-.228-.285-.494-.285-.799 0-.342.114-.627.342-.856.229-.228.647-.437 1.256-.628l10.901-3.367c1.027-.38 1.788-.628 2.283-.742.532-.114.97-.171 1.312-.171.495 0 .875.171 1.142.514.266.342.437.875.513 1.598Zm76.372 18.605c0 1.18-.362 2.093-1.085 2.74-.722.647-1.788.97-3.196.97h-36.012v-2.568h26.653c1.407 0 2.111-.647 2.111-1.941 0-5.555-1.065-9.816-3.196-12.784-2.13-2.968-4.927-4.452-8.389-4.452-2.854 0-5.327.818-7.42 2.455-2.092 1.636-3.709 3.995-4.851 7.076-1.141 3.082-1.712 6.773-1.712 11.072 0 7.648 1.75 13.47 5.251 17.465 3.538 3.957 8.142 5.935 13.811 5.935 3.767 0 7.02-.932 9.759-2.796 2.778-1.903 4.623-4.452 5.536-7.648.305-.457.571-.761.799-.913.229-.191.476-.286.742-.286.381 0 .647.172.799.514.191.304.267.685.229 1.141-.267 3.235-1.389 6.183-3.368 8.847-1.94 2.625-4.527 4.718-7.761 6.278-3.235 1.521-6.887 2.282-10.958 2.282-5.023 0-9.436-1.084-13.241-3.253-3.805-2.168-6.773-5.212-8.903-9.131-2.131-3.957-3.196-8.58-3.196-13.869 0-5.441 1.046-10.292 3.139-14.553 2.13-4.262 5.136-7.61 9.017-10.045 3.881-2.473 8.466-3.71 13.754-3.71 4.414 0 8.238.914 11.472 2.74 3.234 1.788 5.745 4.28 7.533 7.476 1.789 3.158 2.683 6.811 2.683 10.958Zm25.214 26.082c0 .723.172 1.313.514 1.769.38.457.951.742 1.712.857l6.107.684c.609.038 1.046.191 1.313.457.266.228.399.552.399.97 0 .875-.59 1.313-1.769 1.313h-25.226c-.495 0-.894-.114-1.199-.343-.304-.228-.456-.532-.456-.913 0-.38.133-.685.399-.913.267-.266.666-.456 1.199-.571l3.424-.627c.799-.191 1.389-.495 1.769-.914.381-.418.571-.97.571-1.655v-39.151c0-.609-.152-1.104-.456-1.484-.267-.419-.78-.742-1.541-.97l-4.566-.97c-.799-.267-1.351-.533-1.655-.799-.267-.267-.4-.571-.4-.914 0-.342.133-.627.4-.856.266-.228.666-.342 1.198-.342h9.018l-1.941 1.427v-1.541c0-1.256-.266-2.473-.799-3.653-.533-1.179-1.179-2.397-1.94-3.653-.723-1.255-1.351-2.625-1.884-4.109-.532-1.522-.799-3.234-.799-5.136 0-4.338 1.446-7.819 4.338-10.444 2.891-2.664 6.772-3.995 11.643-3.995 3.119 0 5.745.513 7.875 1.54 2.169 1.028 3.805 2.397 4.909 4.11 1.103 1.712 1.655 3.576 1.655 5.593 0 1.94-.495 3.424-1.484 4.451-.951 1.028-2.188 1.541-3.71 1.541-1.636 0-2.968-.532-3.995-1.598-.989-1.065-1.484-2.511-1.484-4.337v-3.367c0-1.751-.456-3.082-1.369-3.996-.914-.951-2.264-1.426-4.053-1.426-2.282 0-4.071.742-5.364 2.226-1.294 1.483-1.941 3.538-1.941 6.163 0 1.751.305 3.368.913 4.851.609 1.484 1.351 2.873 2.226 4.167.913 1.255 1.826 2.492 2.74 3.709.913 1.18 1.674 2.378 2.283 3.596.608 1.217.913 2.454.913 3.71v1.883l-1.199-1.712h12.157c.57 0 .989.114 1.255.342.304.191.457.476.457.856 0 .609-.286 1.104-.856 1.484-.571.381-1.465.571-2.683.571h-8.618v42.119Zm35.727-75.963v75.963c0 .837.153 1.465.457 1.884.343.418.837.703 1.484.856l2.968.57c.494.115.856.305 1.084.571.266.228.4.514.4.856 0 .381-.153.704-.457.97-.304.229-.761.343-1.37.343h-20.603c-.609 0-1.065-.114-1.37-.343-.266-.266-.399-.589-.399-.97 0-.342.114-.628.342-.856.267-.228.666-.418 1.199-.571l2.968-.57c.685-.153 1.179-.438 1.484-.856.304-.419.456-1.028.456-1.827v-69.171c0-.609-.114-1.047-.342-1.313-.191-.304-.533-.475-1.028-.513l-4.109-.115c-.456-.038-.78-.152-.97-.342-.19-.228-.285-.495-.285-.799 0-.343.114-.628.342-.856.228-.228.628-.438 1.199-.628l11.014-3.538c.914-.305 1.618-.514 2.112-.628.533-.152.97-.229 1.313-.229.723 0 1.255.191 1.598.571.342.381.513.894.513 1.541Zm42.125 74.194-5.821 12.613-20.831-48.854c-.723-1.788-1.541-3.044-2.455-3.767-.875-.723-2.111-1.236-3.709-1.541-.571-.152-.97-.342-1.199-.57-.19-.229-.285-.514-.285-.856 0-.419.152-.742.456-.971.343-.228.78-.342 1.313-.342h22.943c.571 0 1.008.114 1.313.342.304.229.456.552.456.971 0 .38-.114.684-.342.913-.228.228-.628.399-1.199.513l-3.196.4c-1.483.266-2.359.799-2.625 1.598-.266.761-.038 2.036.685 3.824l14.496 35.727Zm-9.93 20.432 5.307-13.355 1.199-2.625 15.466-39.038c.838-2.13 1.085-3.652.742-4.566-.342-.913-1.369-1.521-3.081-1.826l-2.854-.513c-.571-.115-.989-.286-1.256-.514-.228-.266-.342-.59-.342-.97 0-.419.152-.742.456-.971.343-.228.78-.342 1.313-.342h15.467c.57 0 1.008.114 1.312.342.343.229.514.552.514.971 0 .342-.114.627-.342.856-.229.228-.628.418-1.199.57-1.864.419-3.272 1.047-4.223 1.884-.952.837-1.827 2.264-2.626 4.28l-22.201 55.646c-1.522 3.842-2.986 6.867-4.394 9.074-1.37 2.245-2.873 3.824-4.509 4.737-1.598.913-3.557 1.37-5.878 1.37-3.349 0-6.012-.932-7.99-2.797-1.979-1.826-2.968-4.052-2.968-6.677 0-1.865.437-3.329 1.312-4.395.914-1.027 2.112-1.541 3.596-1.541 1.37 0 2.454.457 3.253 1.37.799.913 1.389 2.131 1.769 3.653l.457 1.94c.228 1.256.647 2.226 1.255 2.911.609.723 1.37 1.084 2.283 1.084.914 0 1.77-.323 2.569-.97.837-.647 1.712-1.75 2.625-3.31.913-1.522 1.902-3.615 2.968-6.278ZM243 272h3.993v-7.434h4.219c5.09 0 7.824-3.05 7.824-7.283 0-4.2-2.701-7.283-7.77-7.283H243v22Zm3.993-10.71v-7.96h3.659c2.992 0 4.316 1.611 4.316 3.953 0 2.342-1.324 4.007-4.294 4.007h-3.681ZM263.717 272h13.7v-3.341h-9.708V250h-3.992v22Zm22.037 0 1.819-5.425h8.287l1.83 5.425h4.262l-7.771-22h-4.929l-7.76 22h4.262Zm2.895-8.626 2.981-8.862h.173l2.981 8.862h-6.135ZM302.311 250l8.018 13.793V272h3.982v-8.207L322.329 250h-4.509l-5.392 9.732h-.216L306.82 250h-4.509Zm31.819 3.341h6.813V272h3.961v-18.659h6.812V250H334.13v3.341ZM356.319 272h3.992v-9.346h10.214V272h4.004v-22h-4.004v9.313h-10.214V250h-3.992v22Zm23.765 0h14.421v-3.341h-10.429v-6.005h9.601v-3.341h-9.601v-5.972h10.343V250h-14.335v22Zm19.621 0h3.993v-8.057h4.068l4.327 8.057h4.455l-4.768-8.723c2.594-1.042 3.961-3.255 3.961-6.241 0-4.2-2.712-7.036-7.77-7.036h-8.266v22Zm3.993-11.365v-7.305h3.659c2.981 0 4.316 1.364 4.316 3.706 0 2.342-1.335 3.599-4.294 3.599h-3.681ZM423.459 272l1.819-5.425h8.287l1.83 5.425h4.262l-7.771-22h-4.929l-7.76 22h4.262Zm2.895-8.626 2.981-8.862h.173l2.981 8.862h-6.135ZM443.772 272h3.993v-7.434h4.219c5.09 0 7.824-3.05 7.824-7.283 0-4.2-2.701-7.283-7.77-7.283h-8.266v22Zm3.993-10.71v-7.96h3.659c2.992 0 4.316 1.611 4.316 3.953 0 2.342-1.324 4.007-4.294 4.007h-3.681ZM462.982 250 471 263.793V272h3.982v-8.207L483 250h-4.509l-5.392 9.732h-.216L467.491 250h-4.509Z"/>
</svg>
